<?xml version="1.0" ?><!-- Uploaded to: SVG Repo, www.svgrepo.com, Generator: SVG Repo Mixer Tools -->
<svg fill="#000000" width="800px" height="800px" viewBox="0 0 32 32" id="OBJECT" xmlns="http://www.w3.org/2000/svg"><title/><ellipse cx="16" cy="16" rx="4" ry="5.94"/><path d="M30.65,13.24l-14-12a1,1,0,0,0-1.3,0l-14,12a1,1,0,1,0,1.3,1.52l.68-.59V28a3,3,0,0,0,3,3H25.67a3,3,0,0,0,3-3V14.17l.68.59a1,1,0,1,0,1.3-1.52ZM17,23.66V26a1,1,0,0,1-2,0V23.66a8.38,8.38,0,0,1,.69-15.61.94.94,0,0,1,.62,0A8.38,8.38,0,0,1,17,23.66Z"/></svg>